<mxfile host="Electron" agent="Mozilla/5.0 (Windows NT 10.0; Win64; x64) AppleWebKit/537.36 (KHTML, like Gecko) draw.io/26.0.4 Chrome/128.0.6613.186 Electron/32.2.5 Safari/537.36" version="26.0.4">
  <diagram name="Page-1" id="eo9_WLX4i6MRtV-79SUJ">
    <mxGraphModel dx="2216" dy="796" grid="1" gridSize="10" guides="1" tooltips="1" connect="1" arrows="1" fold="1" page="1" pageScale="1" pageWidth="850" pageHeight="1100" math="0" shadow="0">
      <root>
        <mxCell id="0" />
        <mxCell id="1" parent="0" />
        <mxCell id="xD0bL81C4ZWrOrEym1o9-1" value="Vozidlo" style="swimlane;fontStyle=0;childLayout=stackLayout;horizontal=1;startSize=30;horizontalStack=0;resizeParent=1;resizeParentMax=0;resizeLast=0;collapsible=1;marginBottom=0;whiteSpace=wrap;html=1;" parent="1" vertex="1">
          <mxGeometry x="-535" y="420" width="360" height="330" as="geometry" />
        </mxCell>
        <mxCell id="xD0bL81C4ZWrOrEym1o9-2" value="!Príchod" style="text;strokeColor=none;fillColor=none;align=right;verticalAlign=middle;spacingLeft=4;spacingRight=4;overflow=hidden;points=[[0,0.5],[1,0.5]];portConstraint=eastwest;rotatable=0;whiteSpace=wrap;html=1;" parent="xD0bL81C4ZWrOrEym1o9-1" vertex="1">
          <mxGeometry y="30" width="360" height="30" as="geometry" />
        </mxCell>
        <mxCell id="xD0bL81C4ZWrOrEym1o9-3" value="&lt;div align=&quot;right&quot;&gt;!Nastupovanie&lt;br&gt;&lt;/div&gt;" style="text;strokeColor=none;fillColor=none;align=right;verticalAlign=middle;spacingLeft=4;spacingRight=4;overflow=hidden;points=[[0,0.5],[1,0.5]];portConstraint=eastwest;rotatable=0;whiteSpace=wrap;html=1;" parent="xD0bL81C4ZWrOrEym1o9-1" vertex="1">
          <mxGeometry y="60" width="360" height="30" as="geometry" />
        </mxCell>
        <mxCell id="xD0bL81C4ZWrOrEym1o9-4" value="&lt;div align=&quot;right&quot;&gt;!Odchod&lt;br&gt;&lt;/div&gt;" style="text;strokeColor=none;fillColor=none;align=right;verticalAlign=middle;spacingLeft=4;spacingRight=4;overflow=hidden;points=[[0,0.5],[1,0.5]];portConstraint=eastwest;rotatable=0;whiteSpace=wrap;html=1;" parent="xD0bL81C4ZWrOrEym1o9-1" vertex="1">
          <mxGeometry y="90" width="360" height="30" as="geometry" />
        </mxCell>
        <mxCell id="xD0bL81C4ZWrOrEym1o9-5" value="" style="line;strokeWidth=1;fillColor=none;align=left;verticalAlign=middle;spacingTop=-1;spacingLeft=3;spacingRight=3;rotatable=0;labelPosition=right;points=[];portConstraint=eastwest;strokeColor=inherit;" parent="xD0bL81C4ZWrOrEym1o9-1" vertex="1">
          <mxGeometry y="120" width="360" height="8" as="geometry" />
        </mxCell>
        <mxCell id="xD0bL81C4ZWrOrEym1o9-59" value="" style="text;strokeColor=none;fillColor=none;align=left;verticalAlign=middle;spacingTop=-1;spacingLeft=4;spacingRight=4;rotatable=0;labelPosition=right;points=[];portConstraint=eastwest;" parent="xD0bL81C4ZWrOrEym1o9-1" vertex="1">
          <mxGeometry y="128" width="360" height="202" as="geometry" />
        </mxCell>
        <mxCell id="xD0bL81C4ZWrOrEym1o9-7" value="Zastávka" style="swimlane;fontStyle=0;childLayout=stackLayout;horizontal=1;startSize=30;horizontalStack=0;resizeParent=1;resizeParentMax=0;resizeLast=0;collapsible=1;marginBottom=0;whiteSpace=wrap;html=1;" parent="1" vertex="1">
          <mxGeometry x="-40" y="420" width="360" height="330" as="geometry" />
        </mxCell>
        <mxCell id="xD0bL81C4ZWrOrEym1o9-8" value="?Vozidlo_prišlo" style="text;strokeColor=none;fillColor=none;align=left;verticalAlign=middle;spacingLeft=4;spacingRight=4;overflow=hidden;points=[[0,0.5],[1,0.5]];portConstraint=eastwest;rotatable=0;whiteSpace=wrap;html=1;" parent="xD0bL81C4ZWrOrEym1o9-7" vertex="1">
          <mxGeometry y="30" width="360" height="30" as="geometry" />
        </mxCell>
        <mxCell id="xD0bL81C4ZWrOrEym1o9-9" value="&lt;div&gt;?Začiatok_nastupovania&lt;/div&gt;" style="text;strokeColor=none;fillColor=none;align=left;verticalAlign=middle;spacingLeft=4;spacingRight=4;overflow=hidden;points=[[0,0.5],[1,0.5]];portConstraint=eastwest;rotatable=0;whiteSpace=wrap;html=1;" parent="xD0bL81C4ZWrOrEym1o9-7" vertex="1">
          <mxGeometry y="60" width="360" height="30" as="geometry" />
        </mxCell>
        <mxCell id="xD0bL81C4ZWrOrEym1o9-10" value="&lt;div&gt;?Koniec_nastupovania&lt;/div&gt;" style="text;strokeColor=none;fillColor=none;align=left;verticalAlign=middle;spacingLeft=4;spacingRight=4;overflow=hidden;points=[[0,0.5],[1,0.5]];portConstraint=eastwest;rotatable=0;whiteSpace=wrap;html=1;" parent="xD0bL81C4ZWrOrEym1o9-7" vertex="1">
          <mxGeometry y="90" width="360" height="30" as="geometry" />
        </mxCell>
        <mxCell id="xD0bL81C4ZWrOrEym1o9-11" value="" style="line;strokeWidth=1;fillColor=none;align=left;verticalAlign=middle;spacingTop=-1;spacingLeft=3;spacingRight=3;rotatable=0;labelPosition=right;points=[];portConstraint=eastwest;strokeColor=inherit;" parent="xD0bL81C4ZWrOrEym1o9-7" vertex="1">
          <mxGeometry y="120" width="360" height="8" as="geometry" />
        </mxCell>
        <mxCell id="xD0bL81C4ZWrOrEym1o9-12" value="" style="text;strokeColor=none;fillColor=none;align=left;verticalAlign=middle;spacingTop=-1;spacingLeft=4;spacingRight=4;rotatable=0;labelPosition=right;points=[];portConstraint=eastwest;" parent="xD0bL81C4ZWrOrEym1o9-7" vertex="1">
          <mxGeometry y="128" width="360" height="202" as="geometry" />
        </mxCell>
        <mxCell id="xD0bL81C4ZWrOrEym1o9-13" style="edgeStyle=orthogonalEdgeStyle;rounded=0;orthogonalLoop=1;jettySize=auto;html=1;" parent="1" source="xD0bL81C4ZWrOrEym1o9-3" target="xD0bL81C4ZWrOrEym1o9-9" edge="1">
          <mxGeometry relative="1" as="geometry" />
        </mxCell>
        <mxCell id="xD0bL81C4ZWrOrEym1o9-14" style="edgeStyle=orthogonalEdgeStyle;rounded=0;orthogonalLoop=1;jettySize=auto;html=1;" parent="1" source="xD0bL81C4ZWrOrEym1o9-4" target="xD0bL81C4ZWrOrEym1o9-10" edge="1">
          <mxGeometry relative="1" as="geometry" />
        </mxCell>
        <mxCell id="xD0bL81C4ZWrOrEym1o9-27" value="Cestujúci&lt;div&gt;čakajú&lt;/div&gt;" style="ellipse;whiteSpace=wrap;html=1;" parent="1" vertex="1">
          <mxGeometry x="100" y="560" width="100" height="70" as="geometry" />
        </mxCell>
        <mxCell id="xD0bL81C4ZWrOrEym1o9-28" style="edgeStyle=orthogonalEdgeStyle;rounded=0;orthogonalLoop=1;jettySize=auto;html=1;" parent="1" source="xD0bL81C4ZWrOrEym1o9-29" target="xD0bL81C4ZWrOrEym1o9-31" edge="1">
          <mxGeometry relative="1" as="geometry" />
        </mxCell>
        <mxCell id="xD0bL81C4ZWrOrEym1o9-29" value="Vozidlo na&lt;div&gt;zastávke&lt;/div&gt;" style="ellipse;whiteSpace=wrap;html=1;" parent="1" vertex="1">
          <mxGeometry x="210" y="660" width="100" height="70" as="geometry" />
        </mxCell>
        <mxCell id="xD0bL81C4ZWrOrEym1o9-30" style="rounded=0;orthogonalLoop=1;jettySize=auto;html=1;" parent="1" source="xD0bL81C4ZWrOrEym1o9-31" target="xD0bL81C4ZWrOrEym1o9-27" edge="1">
          <mxGeometry relative="1" as="geometry" />
        </mxCell>
        <mxCell id="xD0bL81C4ZWrOrEym1o9-31" value="&lt;div&gt;Cestujúci&lt;/div&gt;&lt;div&gt;nastupojú&lt;/div&gt;" style="ellipse;whiteSpace=wrap;html=1;" parent="1" vertex="1">
          <mxGeometry x="-10" y="660" width="100" height="70" as="geometry" />
        </mxCell>
        <mxCell id="xD0bL81C4ZWrOrEym1o9-32" value="" style="endArrow=classic;html=1;rounded=0;endFill=1;" parent="1" source="xD0bL81C4ZWrOrEym1o9-27" target="xD0bL81C4ZWrOrEym1o9-29" edge="1">
          <mxGeometry width="50" height="50" relative="1" as="geometry">
            <mxPoint x="125" y="700" as="sourcePoint" />
            <mxPoint x="175" y="650" as="targetPoint" />
          </mxGeometry>
        </mxCell>
        <mxCell id="xD0bL81C4ZWrOrEym1o9-33" value="?&lt;span style=&quot;text-align: left; text-wrap: wrap;&quot;&gt;Vozidlo_prišlo&lt;/span&gt;" style="text;html=1;align=center;verticalAlign=middle;resizable=0;points=[];autosize=1;strokeColor=none;fillColor=none;" parent="1" vertex="1">
          <mxGeometry x="200" y="620" width="100" height="30" as="geometry" />
        </mxCell>
        <mxCell id="xD0bL81C4ZWrOrEym1o9-34" value="?&lt;span style=&quot;text-align: left; text-wrap: wrap;&quot;&gt;Začiatok_nastupovania&lt;/span&gt;" style="text;html=1;align=center;verticalAlign=middle;resizable=0;points=[];autosize=1;strokeColor=none;fillColor=none;" parent="1" vertex="1">
          <mxGeometry x="75" y="710" width="150" height="30" as="geometry" />
        </mxCell>
        <mxCell id="xD0bL81C4ZWrOrEym1o9-35" value="&lt;div&gt;?&lt;span style=&quot;text-align: left; text-wrap: wrap; background-color: transparent; color: light-dark(rgb(0, 0, 0), rgb(255, 255, 255));&quot;&gt;Koniec_nastupovania&lt;/span&gt;&lt;/div&gt;" style="text;html=1;align=center;verticalAlign=middle;resizable=0;points=[];autosize=1;strokeColor=none;fillColor=none;" parent="1" vertex="1">
          <mxGeometry x="-40" y="620" width="140" height="30" as="geometry" />
        </mxCell>
        <mxCell id="xD0bL81C4ZWrOrEym1o9-38" style="rounded=0;orthogonalLoop=1;jettySize=auto;html=1;" parent="1" source="xD0bL81C4ZWrOrEym1o9-39" target="xD0bL81C4ZWrOrEym1o9-42" edge="1">
          <mxGeometry relative="1" as="geometry" />
        </mxCell>
        <mxCell id="xD0bL81C4ZWrOrEym1o9-39" value="Na zastávke" style="ellipse;whiteSpace=wrap;html=1;" parent="1" vertex="1">
          <mxGeometry x="-295" y="660" width="100" height="70" as="geometry" />
        </mxCell>
        <mxCell id="xD0bL81C4ZWrOrEym1o9-40" style="rounded=0;orthogonalLoop=1;jettySize=auto;html=1;" parent="1" source="xD0bL81C4ZWrOrEym1o9-41" target="xD0bL81C4ZWrOrEym1o9-39" edge="1">
          <mxGeometry relative="1" as="geometry" />
        </mxCell>
        <mxCell id="xD0bL81C4ZWrOrEym1o9-41" value="Na ceste" style="ellipse;whiteSpace=wrap;html=1;" parent="1" vertex="1">
          <mxGeometry x="-405" y="560" width="100" height="70" as="geometry" />
        </mxCell>
        <mxCell id="xD0bL81C4ZWrOrEym1o9-42" value="Nakladá&lt;div&gt;cestujúcich&lt;/div&gt;" style="ellipse;whiteSpace=wrap;html=1;" parent="1" vertex="1">
          <mxGeometry x="-515" y="660" width="100" height="70" as="geometry" />
        </mxCell>
        <mxCell id="xD0bL81C4ZWrOrEym1o9-44" value="!Príchod" style="text;html=1;align=center;verticalAlign=middle;resizable=0;points=[];autosize=1;strokeColor=none;fillColor=none;" parent="1" vertex="1">
          <mxGeometry x="-300" y="620" width="70" height="30" as="geometry" />
        </mxCell>
        <mxCell id="xD0bL81C4ZWrOrEym1o9-45" value="" style="endArrow=classic;html=1;rounded=0;endFill=1;" parent="1" source="xD0bL81C4ZWrOrEym1o9-42" target="xD0bL81C4ZWrOrEym1o9-41" edge="1">
          <mxGeometry width="50" height="50" relative="1" as="geometry">
            <mxPoint x="-415" y="915" as="sourcePoint" />
            <mxPoint x="-385" y="930" as="targetPoint" />
          </mxGeometry>
        </mxCell>
        <mxCell id="xD0bL81C4ZWrOrEym1o9-46" value="!Odchod" style="text;html=1;align=center;verticalAlign=middle;resizable=0;points=[];autosize=1;strokeColor=none;fillColor=none;" parent="1" vertex="1">
          <mxGeometry x="-490" y="620" width="70" height="30" as="geometry" />
        </mxCell>
        <mxCell id="xD0bL81C4ZWrOrEym1o9-49" value="!Nastupovanie" style="text;html=1;align=center;verticalAlign=middle;resizable=0;points=[];autosize=1;strokeColor=none;fillColor=none;" parent="1" vertex="1">
          <mxGeometry x="-400" y="700" width="100" height="30" as="geometry" />
        </mxCell>
        <mxCell id="xD0bL81C4ZWrOrEym1o9-51" style="edgeStyle=orthogonalEdgeStyle;rounded=0;orthogonalLoop=1;jettySize=auto;html=1;" parent="1" source="xD0bL81C4ZWrOrEym1o9-2" target="xD0bL81C4ZWrOrEym1o9-8" edge="1">
          <mxGeometry relative="1" as="geometry" />
        </mxCell>
      </root>
    </mxGraphModel>
  </diagram>
</mxfile>
